<?xml version="1.0" encoding="utf-8"?>
<!-- Generator: Adobe Illustrator 22.1.0, SVG Export Plug-In . SVG Version: 6.00 Build 0)  -->
<svg version="1.1" id="Layer_1" xmlns="http://www.w3.org/2000/svg" xmlns:xlink="http://www.w3.org/1999/xlink" x="0px" y="0px"
	 viewBox="0 0 448 512" style="enable-background:new 0 0 448 512;" xml:space="preserve">
<style type="text/css">
	.st0{fill:#FFFFFF;}
</style>
<path class="st0" d="M336,292v24c0,6.6-5.4,12-12,12h-76v76c0,6.6-5.4,12-12,12h-24c-6.6,0-12-5.4-12-12v-76h-76
	c-6.6,0-12-5.4-12-12v-24c0-6.6,5.4-12,12-12h76v-76c0-6.6,5.4-12,12-12h24c6.6,0,12,5.4,12,12v76h76C330.6,280,336,285.4,336,292z
	 M448,112v352c0,26.5-21.5,48-48,48H48c-26.5,0-48-21.5-48-48V112c0-26.5,21.5-48,48-48h48V12c0-6.6,5.4-12,12-12h40
	c6.6,0,12,5.4,12,12v52h128V12c0-6.6,5.4-12,12-12h40c6.6,0,12,5.4,12,12v52h48C426.5,64,448,85.5,448,112z M400,458V160H48v298
	c0,3.3,2.7,6,6,6h340C397.3,464,400,461.3,400,458z"/>
</svg>
