<?xml version="1.0" encoding="utf-8"?>
<!-- Generator: Adobe Illustrator 22.1.0, SVG Export Plug-In . SVG Version: 6.00 Build 0)  -->
<svg version="1.1" id="Layer_1" xmlns="http://www.w3.org/2000/svg" xmlns:xlink="http://www.w3.org/1999/xlink" x="0px" y="0px"
	 viewBox="0 0 448 512" style="enable-background:new 0 0 448 512;" xml:space="preserve">
<style type="text/css">
	.st0{fill:#FFFFFF;}
</style>
<path class="st0" d="M311.7,374.7l-17,17c-4.7,4.7-12.3,4.7-17,0L224,337.9l-53.7,53.7c-4.7,4.7-12.3,4.7-17,0l-17-17
	c-4.7-4.7-4.7-12.3,0-17l53.7-53.7l-53.7-53.7c-4.7-4.7-4.7-12.3,0-17l17-17c4.7-4.7,12.3-4.7,17,0l53.7,53.7l53.7-53.7
	c4.7-4.7,12.3-4.7,17,0l17,17c4.7,4.7,4.7,12.3,0,17L257.9,304l53.7,53.7C316.4,362.4,316.4,370,311.7,374.7z M448,112v352
	c0,26.5-21.5,48-48,48H48c-26.5,0-48-21.5-48-48V112c0-26.5,21.5-48,48-48h48V12c0-6.6,5.4-12,12-12h40c6.6,0,12,5.4,12,12v52h128
	V12c0-6.6,5.4-12,12-12h40c6.6,0,12,5.4,12,12v52h48C426.5,64,448,85.5,448,112z M400,458V160H48v298c0,3.3,2.7,6,6,6h340
	C397.3,464,400,461.3,400,458z"/>
</svg>
