<?xml version="1.0" encoding="utf-8"?>
<!-- Generator: Adobe Illustrator 22.1.0, SVG Export Plug-In . SVG Version: 6.00 Build 0)  -->
<svg version="1.1" id="Layer_1" xmlns="http://www.w3.org/2000/svg" xmlns:xlink="http://www.w3.org/1999/xlink" x="0px" y="0px"
	 viewBox="0 0 448 512" style="enable-background:new 0 0 448 512;" xml:space="preserve">
<style type="text/css">
	.st0{fill:#FFFFFF;}
</style>
<path class="st0" d="M436,160H12c-6.6,0-12-5.4-12-12v-36c0-26.5,21.5-48,48-48h48V12c0-6.6,5.4-12,12-12h40c6.6,0,12,5.4,12,12v52
	h128V12c0-6.6,5.4-12,12-12h40c6.6,0,12,5.4,12,12v52h48c26.5,0,48,21.5,48,48v36C448,154.6,442.6,160,436,160z M12,192h424
	c6.6,0,12,5.4,12,12v260c0,26.5-21.5,48-48,48H48c-26.5,0-48-21.5-48-48V204C0,197.4,5.4,192,12,192z M328,332c0-6.6-5.4-12-12-12
	h-60v-60c0-6.6-5.4-12-12-12h-40c-6.6,0-12,5.4-12,12v60h-60c-6.6,0-12,5.4-12,12v40c0,6.6,5.4,12,12,12h60v60c0,6.6,5.4,12,12,12
	h40c6.6,0,12-5.4,12-12v-60h60c6.6,0,12-5.4,12-12V332z"/>
</svg>
